<?xml version="1.0" standalone="no"?>
<!DOCTYPE svg PUBLIC "-//W3C//DTD SVG 20010904//EN"
 "http://www.w3.org/TR/2001/REC-SVG-20010904/DTD/svg10.dtd">
<svg version="1.0" xmlns="http://www.w3.org/2000/svg"
 width="520.000000pt" height="437.000000pt" viewBox="0 0 520.000000 437.000000"
 preserveAspectRatio="xMidYMid meet">

<g transform="translate(0.000000,437.000000) scale(0.100000,-0.100000)"
fill="#000000" stroke="none">
<path d="M1645 4314 c-226 -39 -449 -142 -670 -307 -111 -84 -363 -339 -469
-477 -198 -256 -466 -692 -466 -757 0 -29 224 -1887 235 -1950 11 -64 7 -63
328 -63 161 0 298 4 305 9 27 17 32 95 32 537 0 248 3 587 7 753 l6 302 136
167 136 167 3 -1309 c2 -1201 3 -1311 19 -1328 15 -17 72 -18 1363 -18 1118 0
1349 2 1359 13 8 10 12 381 13 1342 l3 1327 138 -193 138 -194 -5 -305 c-3
-168 -7 -512 -8 -766 -2 -378 0 -464 11 -478 12 -14 48 -16 322 -16 l309 0 14
23 c12 20 257 1895 256 1969 0 33 -129 278 -253 480 -427 695 -922 1055 -1492
1085 -132 7 -139 3 -149 -84 -21 -174 -77 -295 -191 -409 -318 -321 -819 -266
-1046 116 -44 75 -91 197 -109 285 -18 87 -28 95 -119 94 -42 0 -112 -7 -156
-15z"/>
</g>
</svg>
